<svg xmlns="http://www.w3.org/2000/svg" viewBox="0 0 256 256" width="256" height="256">
	<style>
		tspan { white-space:pre }
		.shp0 { fill: #dedede; opacity: 0.5; } 
	</style>
	<g id="Layer">
		<g id="Layer">
			<g id="Layer">
				<g id="Layer">
					<path id="Layer" class="shp0" d="M85.63 100.96L89.18 103.48L89.3 103.57L89.53 103.66L92.12 104.89L92.04 104.71C94.49 105.71 97.07 106.43 99.87 106.43C112.27 106.43 122.3 96 122.3 83.13C122.3 70.26 112.25 59.83 99.87 59.83C95.89 59.83 92.22 60.98 88.98 62.87C90.09 50.41 96.37 32.24 119.36 13.71C122.58 11.12 123.17 6.31 120.67 2.97C119.21 1.01 117.03 0 114.84 0C113.26 0 111.67 0.53 110.32 1.6C82.09 24.38 75.04 47.78 74.1 63.4C72.48 83.39 78.55 93.9 84.09 99.38L85.63 100.96Z" />
					<path id="Layer" class="shp0" d="M10.28 99.38L11.84 100.96L15.37 103.48L15.49 103.57L15.74 103.66L18.33 104.89L18.25 104.71C20.7 105.71 23.29 106.43 26.09 106.43C38.48 106.43 48.5 96 48.5 83.13C48.5 70.26 38.48 59.83 26.06 59.83C22.09 59.83 18.42 60.98 15.17 62.87C16.27 50.41 22.54 32.24 45.54 13.71C48.77 11.12 49.35 6.31 46.85 2.97C45.39 1.01 43.21 0 41.02 0C39.43 0 37.85 0.53 36.5 1.6C8.26 24.38 1.22 47.78 0.26 63.4C-1.35 83.39 4.71 93.9 10.28 99.38Z" />
				</g>
				<g id="Layer copy 6">
					<path id="Layer copy 4" class="shp0" d="M163.67 95.47L160.13 92.95L160 92.86L159.78 92.77L157.19 91.54L157.26 91.72C154.81 90.72 152.24 90 149.43 90C137.04 90 127 100.43 127 113.3C127 126.17 137.05 136.6 149.43 136.6C153.41 136.6 157.08 135.45 160.32 133.56C159.21 146.02 152.94 164.19 129.94 182.72C126.73 185.31 126.13 190.12 128.63 193.46C130.09 195.42 132.27 196.43 134.46 196.43C136.05 196.43 137.63 195.9 138.99 194.83C167.21 172.05 174.26 148.65 175.2 133.03C176.82 113.04 170.76 102.54 165.21 97.05L163.67 95.47Z" />
					<path id="Layer copy 5" class="shp0" d="M239.02 97.05L237.47 95.47L233.93 92.95L233.81 92.86L233.57 92.77L230.98 91.54L231.05 91.72C228.6 90.72 226.01 90 223.21 90C210.83 90 200.81 100.43 200.81 113.3C200.81 126.17 210.83 136.6 223.24 136.6C227.22 136.6 230.89 135.45 234.13 133.56C233.03 146.02 226.76 164.19 203.76 182.72C200.53 185.31 199.95 190.12 202.45 193.46C203.91 195.42 206.09 196.43 208.28 196.43C209.87 196.43 211.45 195.9 212.81 194.83C241.04 172.05 248.08 148.65 249.04 133.03C250.66 113.04 244.59 102.53 239.02 97.05Z" />
				</g>
			</g>
		</g>
	</g>
</svg>